<svg width="558" height="515" viewBox="0 0 558 515" fill="none" xmlns="http://www.w3.org/2000/svg">
<path d="M14.4857 446.27L14.7729 446.127L14.8434 445.897L42.2669 406.206C105.933 314.07 193.535 223.183 276.57 163.077L276.13 162.47L276.57 163.077C322.328 129.948 365.568 106.602 405.083 93.6526C447.682 79.6957 484.883 78.2594 515.707 89.286L515.96 88.5798L515.707 89.286L533.297 95.576L535.055 96.2047L534.221 94.5346L525.871 77.8246L525.871 77.8243C515.982 58.0562 499.419 44.9406 477.991 39.9296C452.869 34.0539 421.141 38.8935 383.096 54.2003C345.428 69.3556 301.488 94.8044 251.504 130.423C260.175 87.95 272.009 46.2384 272.412 44.8175L272.421 44.7859L272.422 44.7838L274.301 38.2059L274.489 37.5485L273.852 37.3008L267.472 34.8208L267.471 34.8206C244.203 25.79 216.09 23.9184 188.904 25.441C161.711 26.9641 135.381 31.8874 115.638 36.4976C104.213 38.8969 95.5104 41.2972 89.5891 43.1439C86.6279 44.0674 84.3612 44.8527 82.7968 45.4307C82.0149 45.7196 81.4064 45.9574 80.9731 46.1354C80.7569 46.2243 80.5812 46.2994 80.4479 46.3595C80.3348 46.4105 80.2084 46.4697 80.1212 46.5246C80.1198 46.5254 80.1185 46.5263 80.1172 46.5271L27.7726 79.2137L28.4033 80.5626L87.0633 61.3526L87.0709 61.3501L87.0785 61.3475L87.0828 61.346L87.0949 61.3419L87.1356 61.3284C87.1696 61.3172 87.2158 61.3021 87.2742 61.2831C87.3911 61.2453 87.5552 61.1927 87.7652 61.1262C88.1851 60.9932 88.7873 60.8049 89.5602 60.5685C91.106 60.0956 93.3337 59.4305 96.1499 58.63C101.774 57.0314 109.745 54.8936 119.317 52.6702C120.958 52.4858 122.671 52.3296 124.458 52.1956C120.548 77.4044 102.942 142.562 83.0551 212.055C62.9279 282.385 40.4868 357.078 27.6128 399.09L28.3299 399.31L27.6128 399.09L13.4328 445.38L13.7746 445.485L14.4657 446.28L14.4857 446.27ZM474.239 55.9901C483.368 58.1264 491.189 62.0099 497.669 67.5891C459.192 61.0285 417.918 69.7743 378.353 85.8374C337.894 102.263 299.158 126.367 266.92 149.702C194.391 202.198 118.521 277.702 57.5807 357.22C70.8194 313.285 90.5519 246.975 107.583 186.33C116.358 155.083 124.418 125.336 130.503 100.926C136.465 77.0081 140.546 58.1592 141.532 48.0522C176.181 41.6372 220.613 37.3997 254.476 47.7817C250.278 63.3494 240.193 108.274 233.319 143.593C231.461 144.983 228.94 146.838 225.92 149.059C215.688 156.586 199.738 168.32 184.533 180.433C173.783 188.997 164.611 196.548 157.707 202.437C150.822 208.309 146.149 212.567 144.435 214.526L144.396 214.571L144.364 214.622L134.364 230.622L134.35 230.645L134.337 230.669L122.687 252.699L123.836 253.621L151.846 229.801L151.36 229.23L151.846 229.801C179.677 206.129 206.495 184.518 231.562 165.558C301.056 112.992 353.259 83.6072 392.336 68.3623C431.415 53.1167 457.316 52.0312 474.239 55.9901Z" fill="#FCFCFD" stroke="#FCFCFD" stroke-width="1.5"/>
<path d="M135 45.5L43.8169 374.855C241.078 160.97 324.896 119.799 386.5 88.5C436.1 63.3 494.167 71.6667 517 79C518.833 75.8333 514 64.7 480 45.5C446 26.3 329.167 87.1667 275 120L145.5 222L242.5 144.5L262 45.5L201.5 32.5L135 45.5Z" fill="#FCFCFD"/>
<path d="M294.84 355.33C295.783 355.57 296.671 355.83 297.532 356.082C297.713 356.135 297.892 356.188 298.07 356.24C306.55 358.731 318.019 362.086 396.264 351.839C396.106 351.611 395.947 351.379 395.786 351.146M294.84 355.33H295.59V355.32V354.856L295.175 354.649C295.165 354.644 295.155 354.639 295.145 354.634M294.84 355.33L294.843 355.32L294.845 355.309L295.025 354.603C295.065 354.613 295.105 354.623 295.145 354.634M294.84 355.33L230 272.99M295.145 354.634C296.057 354.869 296.921 355.122 297.747 355.364C297.926 355.416 298.104 355.468 298.28 355.52L298.281 355.52L298.322 355.532C306.617 357.969 318.007 361.315 395.786 351.146M295.145 354.634C292.163 353.133 287.868 349.198 282.741 343.547C277.625 337.907 271.759 330.647 265.664 322.633C253.613 306.787 240.696 288.028 230.96 273.09M395.786 351.146C396.064 351.109 396.342 351.073 396.621 351.036C376.238 321.456 331.997 250.891 313.749 201.571C313.539 201.723 313.329 201.875 313.119 202.028M395.786 351.146C375.329 321.413 331.38 251.257 313.119 202.028M313.119 202.028C313.028 201.784 312.938 201.54 312.849 201.297C286.555 220.371 258.77 244.22 230 272.99M313.119 202.028C287.043 220.96 259.491 244.599 230.96 273.09M230.96 273.09C230.849 272.92 230.739 272.75 230.629 272.581L230 272.99M230.96 273.09C230.817 273.233 230.674 273.377 230.53 273.52L230 272.99M136.33 384.62C172.066 340.983 209.42 295.619 217.89 286.25C220.856 290.83 233.145 308.677 247.171 326.777C254.754 336.563 262.858 346.439 270.285 354.344C273.998 358.296 277.55 361.765 280.79 364.486C284.02 367.198 286.984 369.207 289.519 370.189L289.52 370.189L289.96 370.359L290.007 370.378L290.055 370.389L290.51 370.498C290.511 370.498 290.512 370.498 290.513 370.499C291.534 370.751 292.528 371.043 293.608 371.361L293.639 371.369L293.639 371.37C305.19 374.75 318.226 378.502 411.622 365.683L424.512 363.913L425.801 363.736L425.002 362.709L417.012 352.439C410.655 344.265 393.088 318.274 374.595 287.336C356.207 256.575 336.943 220.992 326.88 193.228C341.793 180.314 373.889 158.95 406.265 146.701C443.102 132.763 482.134 132.921 512.533 154.588C518.587 159.943 522.388 164.093 524.862 166.794C525.469 167.457 525.996 168.032 526.456 168.517L526.477 168.538L526.498 168.557L536.498 177.557L536.51 177.568L536.523 177.579L553.523 191.579L555.707 193.377L554.701 190.733L546.491 169.153L546.463 169.078L546.419 169.011C524.636 135.476 494.297 118.962 456.259 120.03C416.301 121.145 378.345 136.524 338.769 162.543C299.2 188.558 257.961 225.244 211.436 269.034L211.418 269.051L211.401 269.069C138.44 347.501 69.4035 432.54 38.3571 481.367L38.3332 481.405L38.3138 481.445L23.3239 512.675L24.5303 513.53L46.5303 491.53C46.5481 491.512 46.9485 491.086 47.6198 490.371C49.0393 488.86 51.67 486.059 54.4545 483.106C57.7193 479.642 61.2037 475.96 63.25 473.84V474.129L64.5817 472.493L64.1076 472.107C64.5818 472.493 64.5823 472.493 64.5833 472.491L64.5881 472.485L64.6072 472.462L64.6832 472.369L64.9837 471.999L66.1573 470.558C67.186 469.295 68.6967 467.44 70.6244 465.074C74.4798 460.341 80.0032 453.564 86.6749 445.385C100.019 429.025 117.956 407.057 136.33 384.62Z" fill="#FCFCFD" stroke="#FCFCFD" stroke-width="1.5"/>
<path d="M287.5 361C278.7 359 240.167 303.5 222 276L318 193C347.167 245.833 406 353.4 408 361C410.5 370.5 298.5 363.5 287.5 361Z" fill="#FCFCFD"/>
<path d="M89.2259 83.6885L87.7884 83.2631C55.6331 179.869 26.3483 278.755 0.774043 377.312L2.21155 377.737C34.3969 281.131 63.6317 182.235 89.2259 83.6885Z" fill="#FCFCFD" stroke="#FCFCFD" stroke-width="1.5"/>
<path d="M92.3996 479.551L91.5016 480.75H93H93.01H93.3334L93.5554 480.515C116.181 456.548 138.453 430.464 159.635 405.141L159.64 405.136C180.578 379.648 202.286 352.976 221.116 325.929L219.939 325.003C175.822 374.81 132.297 426.257 92.3996 479.551Z" fill="#FCFCFD" stroke="#FCFCFD" stroke-width="1.5"/>
<path d="M352.991 202.949L353.926 204.117C373.938 190.301 396.18 175.76 419.487 167.729C442.771 159.707 467.063 158.201 491.232 170.39L491.242 170.395C497.63 173.5 503.682 177.374 509.562 181.609L510.526 180.465C505.304 175.335 499.459 170.779 493.13 166.929L493.129 166.929C468.894 152.208 442.936 152.822 418.524 161.303C394.129 169.778 371.229 186.12 352.991 202.949Z" fill="#FCFCFD" stroke="#FCFCFD" stroke-width="1.5"/>
<path d="M323.588 61.3733L324.341 62.6678C348.574 50.2765 380.242 35.1255 412.379 26.5661C444.535 18.0017 477.012 16.0768 502.964 29.9501C515.639 36.8721 525.646 47.6414 532.91 60.2446L534.248 59.5707C529.179 47.9291 521.081 37.3248 510.864 29.5434L510.858 29.5383L510.851 29.5333C484.313 10.2585 449.38 10.4294 415.232 19.2627C381.065 28.101 347.522 45.6497 323.588 61.3733Z" fill="#FCFCFD" stroke="#FCFCFD" stroke-width="1.5"/>
<path d="M97.6934 24.8356L98.2124 26.2394C126.433 17.905 155.404 10.862 184.707 8.63797L184.713 8.63742C214.079 6.15455 243.531 8.64679 272.333 15.2312L272.764 13.7979C258.776 8.54625 244.099 5.01304 229.195 3.10614L229.193 3.10589C184.474 -2.49405 138.556 6.5298 97.6934 24.8356Z" fill="#FCFCFD" stroke="#FCFCFD" stroke-width="1.5"/>
</svg>
